<svg width="561" height="493" viewBox="0 0 561 493" fill="none" xmlns="http://www.w3.org/2000/svg">
<g clip-path="url(#clip0_1_2)">
<path d="M556.53 485.95C555.55 487.32 554.56 488.68 553.58 490.03C550.763 491.971 547.421 493.007 544 493H17C13.7316 493.003 10.5325 492.058 7.79001 490.28C6.87985 489.08 5.97995 487.87 5.06979 486.66L5.97995 486.16L272.77 338.28C275.137 336.971 277.797 336.282 280.503 336.279C283.208 336.275 285.87 336.957 288.24 338.26L555.63 485.45L556.53 485.95Z" fill="#0169ED"/>
<path d="M-1 191.999V192L-1 476L-0.999999 476.001C-0.99444 480.773 0.903647 485.348 4.27788 488.722C7.65211 492.096 12.227 493.994 16.9988 494H17H544H544.002C548.773 493.992 553.346 492.093 556.719 488.719C560.093 485.346 561.992 480.773 562 476.002V476V192V191.999C561.993 187.227 560.095 182.653 556.721 179.279C553.411 175.969 548.946 174.079 544.272 174.002L313.282 40.6036C303.405 34.8996 292.201 31.894 280.796 31.8884C269.39 31.8828 258.184 34.8774 248.301 40.5716L16.7283 174.002C12.0547 174.079 7.58931 175.969 4.27913 179.279C0.905204 182.653 -0.993249 187.227 -1 191.999ZM17.0012 178L17.268 178L17.4992 177.866L249.299 44.3045C258.878 38.7854 269.74 35.8829 280.795 35.8884C291.85 35.8938 302.708 38.807 312.282 44.3356L543.5 177.866L543.731 178L543.999 178C547.711 178.005 551.269 179.481 553.894 182.106C556.519 184.731 557.995 188.289 558 192.001V475.998C557.991 479.708 556.513 483.265 553.889 485.889C551.265 488.513 547.708 489.991 543.998 490H17.0018C13.2903 489.993 9.73281 488.516 7.10841 485.892C4.48423 483.267 3.00692 479.71 3 475.999V192.001C3.00467 188.289 4.48123 184.73 7.10585 182.106C9.73061 179.481 13.2892 178.005 17.0012 178Z" fill="#FFB805" stroke="#FFB805" stroke-width="2"/>
<path d="M280.8 335.68C279.058 335.686 277.328 335.396 275.684 334.822L275.381 334.715L275.32 334.042C275.132 334.135 274.941 334.224 274.751 334.308L274.55 334.396L274.348 334.308C273.927 334.123 273.508 333.913 273.105 333.686L89 230.232V19C89.0055 14.0952 90.9564 9.39284 94.4246 5.92461C97.8928 2.45638 102.595 0.505505 107.5 0.5H453.5C458.405 0.505505 463.107 2.45638 466.575 5.92461C470.044 9.39284 471.994 14.0952 472 19V230.502L471.745 230.646L288.495 333.686C286.143 334.997 283.493 335.684 280.8 335.68V335.68Z" fill="white"/>
<path d="M280.8 336.18C279.002 336.186 277.215 335.886 275.518 335.293L274.912 335.08L274.886 334.794L274.55 334.942L274.147 334.766C273.711 334.574 273.278 334.357 272.859 334.121L88.5 230.525V19C88.5057 13.9626 90.5093 9.13323 94.0713 5.57127C97.6332 2.00932 102.463 0.00570109 107.5 0H453.5C458.537 0.00572222 463.367 2.00934 466.929 5.57129C470.491 9.13324 472.494 13.9626 472.5 19V230.795L288.74 334.122C286.313 335.475 283.579 336.184 280.8 336.18ZM276.786 333.604C280.463 334.659 284.408 334.219 287.761 332.378L470.5 229.625V19C470.495 14.4929 468.702 10.1718 465.515 6.98479C462.328 3.79777 458.007 2.00507 453.5 2H107.5C102.993 2.00505 98.6718 3.79775 95.4848 6.98477C92.2977 10.1718 90.5051 14.4929 90.5 19V229.354L102.49 236.088L273.84 332.378C274.073 332.51 274.31 332.633 274.55 332.749C274.79 332.633 275.027 332.51 275.259 332.379L276.606 331.62L276.786 333.604Z" fill="#FFB805" stroke="#FFB805" stroke-width="2"/>
<path d="M556.57 182.38L484 223.18L471.5 230.21L288.25 333.25C285.973 334.52 283.407 335.185 280.8 335.18C279.115 335.185 277.441 334.904 275.85 334.35C275.407 334.209 274.973 334.042 274.55 333.85C274.14 333.67 273.74 333.47 273.35 333.25L102 236.96L89.5 229.94L4.58007 182.22C4.34916 182.088 4.17978 181.87 4.10867 181.613C4.03755 181.357 4.07042 181.082 4.20019 180.85C4.3303 180.619 4.54659 180.45 4.80154 180.379C5.05649 180.307 5.32928 180.34 5.56005 180.47L89.5 227.64L102 234.66L274.33 331.5C274.902 331.821 275.497 332.098 276.11 332.33C276.37 332.43 276.64 332.52 276.91 332.6C278.622 333.125 280.422 333.299 282.203 333.11C283.983 332.921 285.707 332.373 287.27 331.5L471.5 227.92L484 220.89L519.795 200.765L555.59 180.64C555.704 180.576 555.83 180.534 555.96 180.519C556.09 180.503 556.222 180.513 556.349 180.548C556.475 180.584 556.593 180.643 556.696 180.724C556.799 180.805 556.885 180.906 556.95 181.02C557.014 181.134 557.055 181.26 557.071 181.39C557.087 181.52 557.077 181.652 557.042 181.779C557.006 181.905 556.946 182.023 556.865 182.126C556.785 182.229 556.684 182.316 556.57 182.38Z" fill="#FFB805" stroke="#FFB805" stroke-width="2"/>
<path d="M164.075 66H136.075C133.953 66 131.918 65.1572 130.418 63.6569C128.918 62.1566 128.075 60.1217 128.075 58C128.075 55.8783 128.918 53.8434 130.418 52.3431C131.918 50.8428 133.953 50 136.075 50H164.075C166.197 50 168.231 50.8428 169.732 52.3431C171.232 53.8434 172.075 55.8783 172.075 58C172.075 60.1217 171.232 62.1566 169.732 63.6569C168.231 65.1572 166.197 66 164.075 66Z" fill="#0169ED"/>
<path d="M197.075 93H136.075C133.953 93 131.918 92.1572 130.418 90.6569C128.918 89.1566 128.075 87.1217 128.075 85C128.075 82.8783 128.918 80.8434 130.418 79.3431C131.918 77.8428 133.953 77 136.075 77H197.075C199.197 77 201.231 77.8428 202.732 79.3431C204.232 80.8434 205.075 82.8783 205.075 85C205.075 87.1217 204.232 89.1566 202.732 90.6569C201.231 92.1572 199.197 93 197.075 93Z" fill="#E6E6E6"/>
<path d="M367.5 165H194.5C192.378 165 190.343 164.157 188.843 162.657C187.343 161.157 186.5 159.122 186.5 157C186.5 154.878 187.343 152.843 188.843 151.343C190.343 149.843 192.378 149 194.5 149H367.5C369.622 149 371.657 149.843 373.157 151.343C374.657 152.843 375.5 154.878 375.5 157C375.5 159.122 374.657 161.157 373.157 162.657C371.657 164.157 369.622 165 367.5 165Z" fill="#0169ED"/>
<path d="M383.5 196H177.5C175.378 196 173.343 195.157 171.843 193.657C170.343 192.157 169.5 190.122 169.5 188C169.5 185.878 170.343 183.843 171.843 182.343C173.343 180.843 175.378 180 177.5 180H383.5C385.622 180 387.657 180.843 389.157 182.343C390.657 183.843 391.5 185.878 391.5 188C391.5 190.122 390.657 192.157 389.157 193.657C387.657 195.157 385.622 196 383.5 196Z" fill="#E6E6E6"/>
<path d="M383.5 226H177.5C175.378 226 173.343 225.157 171.843 223.657C170.343 222.157 169.5 220.122 169.5 218C169.5 215.878 170.343 213.843 171.843 212.343C173.343 210.843 175.378 210 177.5 210H383.5C385.622 210 387.657 210.843 389.157 212.343C390.657 213.843 391.5 215.878 391.5 218C391.5 220.122 390.657 222.157 389.157 223.657C387.657 225.157 385.622 226 383.5 226Z" fill="#E6E6E6"/>
</g>
<defs>
<clipPath id="clip0_1_2">
<rect width="561" height="493" fill="white"/>
</clipPath>
</defs>
</svg>
